# xmcd CD database file
#
# Track frame offsets:
#	150
#	18829
#	34668
#	49517
#	64608
#	79252
#	98732
#	113328
#	129691
#	147162
#	160268
#	177951
#	194580
#	212004
#	224302
#	239947
#	256060
#	272382
#	289921
#	303961
#	319433
#
# Disc length: 4499 seconds
#
# Revision: 1
# Processed by: cddbd v1.5.2PL0 Copyright (c) Steve Scherf et al.
# Submitted via: CDex 2.15
#
DISCID=2e119115
DTITLE=Ed Bruce - Ed Bruce - Girls, Women and Ladies: The Universal Recordings - Disc 2
DYEAR=2018
DGENRE=Country
TTITLE0=Ed Bruce - Diane
TTITLE1=Ed Bruce - Tell 'Em I've Gone Crazy
TTITLE2=Ed Bruce - Neon Fool
TTITLE3=Ed Bruce - If I Just Knew What To Say
TTITLE4=Ed Bruce - I Take The Chance
TTITLE5=Ed Bruce - Somebody's Crying
TTITLE6=Ed Bruce - I Still Wish The Very Best For You
TTITLE7=Ed Bruce - You've Got Her Eyes
TTITLE8=Ed Bruce - Memories Can't Stand To Be Alone
TTITLE9=Ed Bruce - Old Time's Sake
TTITLE10=Ed Bruce - Streets Of Laredo
TTITLE11=Ed Bruce - The Devil Inside
TTITLE12=Ed Bruce - Easy Temptations
TTITLE13=Ed Bruce - Someone Who Would Care
TTITLE14=Ed Bruce - Girls, Women And Ladies
TTITLE15=Ed Bruce - (When You Fall In Love) Everything's A Waltz
TTITLE16=Ed Bruce - After All
TTITLE17=Ed Bruce - It Would Take A Fool
TTITLE18=Ed Bruce - Just Along For The Ride
TTITLE19=Ed Bruce - One More Shot Of Old Back Home Again
TTITLE20=Ed Bruce - Babe In Arms
EXTD=YEAR: 2018
EXTT0=
EXTT1=
EXTT2=
EXTT3=
EXTT4=
EXTT5=
EXTT6=
EXTT7=
EXTT8=
EXTT9=
EXTT10=
EXTT11=
EXTT12=
EXTT13=
EXTT14=
EXTT15=
EXTT16=
EXTT17=
EXTT18=
EXTT19=
EXTT20=
PLAYORDER=
